<?xml version="1.0" encoding="UTF-8"?>
<svg width="24" height="24" viewBox="0 0 24 24" fill="none" xmlns="http://www.w3.org/2000/svg">
  <path d="M12 15C13.6569 15 15 13.6569 15 12V6C15 4.34315 13.6569 3 12 3C10.3431 3 9 4.34315 9 6V12C9 13.6569 10.3431 15 12 15Z" fill="white"/>
  <path d="M17 12C17 14.7614 14.7614 17 12 17C9.23858 17 7 14.7614 7 12M12 19V21M5 11V12C5 15.866 8.13401 19 12 19C15.866 19 19 15.866 19 12V11" stroke="white" stroke-width="2" stroke-linecap="round" stroke-linejoin="round"/>
</svg>
